<svg xmlns="http://www.w3.org/2000/svg" width="375" viewBox="0 0 375 375" height="375" version="1.0"><defs><clipPath id="a"><path d="M 31.921875 44.648438 L 343.171875 44.648438 L 343.171875 330.398438 L 31.921875 330.398438 Z M 31.921875 44.648438"/></clipPath></defs><path fill="#FFF" d="M-37.5 -37.5H412.5V412.5H-37.5z"/><path fill="#343A3F" d="M-37.5 -37.5H412.5V412.5H-37.5z"/><path fill="#BFE5EF" d="M 187.542969 104.441406 C 228.296875 104.441406 261.339844 137.480469 261.339844 178.234375 C 261.339844 218.984375 228.296875 252.023438 187.542969 252.023438 L 114.65625 252.023438 C 123.261719 246.226562 131.058594 239.890625 138.28125 233.179688 L 138.3125 233.203125 C 123.230469 219.699219 113.75 200.085938 113.75 178.234375 C 113.75 137.480469 146.792969 104.441406 187.550781 104.441406 Z M 187.542969 104.441406" fill-rule="evenodd"/><g clip-path="url(#a)"><path fill="#74B7A0" d="M 69.933594 115.242188 L 67.976562 115.242188 C 48.144531 115.242188 31.921875 131.464844 31.921875 151.285156 L 31.921875 186.238281 C 31.921875 206.125 48.222656 222.292969 67.976562 222.292969 L 87.871094 222.292969 C 81.90625 208.820312 78.59375 193.90625 78.59375 178.226562 C 78.59375 118.253906 127.171875 69.273438 187.550781 69.273438 C 247.921875 69.273438 296.507812 118.246094 296.507812 178.226562 C 296.507812 193.90625 293.199219 208.8125 287.230469 222.292969 C 273.808594 252.605469 246.960938 275.640625 214.234375 283.878906 C 208.898438 274.691406 198.941406 268.519531 187.550781 268.519531 C 170.519531 268.519531 156.707031 282.316406 156.707031 299.359375 C 156.707031 316.386719 170.519531 330.191406 187.550781 330.191406 C 201.457031 330.191406 213.21875 320.984375 217.0625 308.324219 C 262.292969 298.113281 298.804688 264.941406 313.699219 221.679688 C 330.410156 218.566406 343.171875 203.816406 343.171875 186.238281 L 343.171875 151.289062 C 343.171875 131.464844 326.949219 115.242188 307.113281 115.242188 L 305.15625 115.242188 C 282.667969 73.34375 238.433594 44.859375 187.542969 44.859375 C 136.65625 44.859375 92.421875 73.34375 69.929688 115.242188 Z M 69.933594 115.242188" fill-rule="evenodd"/></g></svg>