<svg xmlns="http://www.w3.org/2000/svg" width="375" viewBox="0 0 375 375" height="375" version="1.0"><defs><clipPath id="a"><path d="M 74.535156 37.5 L 300.285156 37.5 L 300.285156 245.25 L 74.535156 245.25 Z M 74.535156 37.5"/></clipPath></defs><path fill="#FFF" d="M-37.5 -37.5H412.5V412.5H-37.5z"/><path fill="#FFF" d="M-37.5 -37.5H412.5V412.5H-37.5z"/><path fill="#343A3F" d="M-37.5 -37.5H412.5V412.5H-37.5z"/><path fill="#BFE5EF" d="M 187.410156 80.96875 C 216.96875 80.96875 240.9375 104.992188 240.9375 134.621094 C 240.9375 164.246094 216.96875 188.269531 187.410156 188.269531 L 134.546875 188.269531 C 140.785156 184.054688 146.441406 179.449219 151.679688 174.566406 L 151.703125 174.582031 C 140.761719 164.765625 133.886719 150.507812 133.886719 134.621094 C 133.886719 104.992188 157.855469 80.96875 187.414062 80.96875 Z M 187.410156 80.96875" fill-rule="evenodd"/><g clip-path="url(#a)"><path fill="#74B7A0" d="M 102.109375 88.824219 L 100.6875 88.824219 C 86.304688 88.824219 74.535156 100.617188 74.535156 115.027344 L 74.535156 140.441406 C 74.535156 154.898438 86.359375 166.652344 100.6875 166.652344 L 115.117188 166.652344 C 110.792969 156.855469 108.386719 146.015625 108.386719 134.613281 C 108.386719 91.011719 143.621094 55.398438 187.414062 55.398438 C 231.203125 55.398438 266.441406 91.007812 266.441406 134.613281 C 266.441406 146.015625 264.042969 156.851562 259.710938 166.652344 C 249.976562 188.691406 230.503906 205.441406 206.769531 211.429688 C 202.898438 204.746094 195.675781 200.261719 187.414062 200.261719 C 175.0625 200.261719 165.042969 210.292969 165.042969 222.683594 C 165.042969 235.0625 175.0625 245.101562 187.414062 245.101562 C 197.503906 245.101562 206.035156 238.40625 208.820312 229.203125 C 241.625 221.777344 268.109375 197.660156 278.910156 166.207031 C 291.03125 163.945312 300.285156 153.21875 300.285156 140.441406 L 300.285156 115.027344 C 300.285156 100.617188 288.519531 88.824219 274.136719 88.824219 L 272.714844 88.824219 C 256.402344 58.359375 224.320312 37.648438 187.410156 37.648438 C 150.503906 37.648438 118.417969 58.359375 102.101562 88.824219 Z M 102.109375 88.824219" fill-rule="evenodd"/></g><g fill="#74B7A0"><g><g><path d="M 52.46875 -55.5625 L 19.640625 -55.5625 L 19.640625 -36.671875 L 49.390625 -36.671875 L 49.390625 -26.84375 L 19.640625 -26.84375 L 19.640625 0 L 8.609375 0 L 8.609375 -65.46875 L 52.5625 -65.46875 Z M 52.46875 -55.5625" transform="translate(60.867 348.563)"/></g></g></g><g fill="#74B7A0"><g><g><path d="M 19.640625 0 L 8.609375 0 L 8.609375 -65.46875 L 19.640625 -65.46875 Z M 19.640625 0" transform="translate(114.645 348.563)"/></g></g></g><g fill="#74B7A0"><g><g><path d="M 38.90625 -34.046875 L 62.765625 0 L 49.578125 0 L 31.890625 -24.6875 L 14.3125 0 L 1.40625 0 L 25.25 -33.578125 L 3.09375 -65.46875 L 15.90625 -65.46875 L 31.890625 -42.75 L 47.984375 -65.46875 L 60.890625 -65.46875 Z M 38.90625 -34.046875" transform="translate(142.89 348.563)"/></g></g></g><g fill="#BFE5EF"><g><g><path d="M 53.3125 -55.5625 L 32.546875 -55.5625 L 32.546875 0 L 21.515625 0 L 21.515625 -55.5625 L 0.84375 -55.5625 L 0.84375 -65.46875 L 53.3125 -65.46875 Z M 53.3125 -55.5625" transform="translate(259.983 348.563)"/></g></g></g></svg>