<svg xmlns="http://www.w3.org/2000/svg" width="375" viewBox="0 0 375 375" height="375" version="1.0"><defs><clipPath id="a"><path d="M 74.535156 37.5 L 300.285156 37.5 L 300.285156 245.25 L 74.535156 245.25 Z M 74.535156 37.5"/></clipPath></defs><path fill="#FFF" d="M-37.5 -37.5H412.5V412.5H-37.5z"/><path fill="#FFF" d="M-37.5 -37.5H412.5V412.5H-37.5z"/><path fill="#343A3F" d="M-37.5 -37.5H412.5V412.5H-37.5z"/><path fill="#BFE5EF" d="M 187.410156 80.96875 C 216.96875 80.96875 240.9375 104.992188 240.9375 134.621094 C 240.9375 164.246094 216.96875 188.269531 187.410156 188.269531 L 134.546875 188.269531 C 140.785156 184.054688 146.441406 179.449219 151.679688 174.566406 L 151.703125 174.582031 C 140.761719 164.765625 133.886719 150.507812 133.886719 134.621094 C 133.886719 104.992188 157.855469 80.96875 187.414062 80.96875 Z M 187.410156 80.96875" fill-rule="evenodd"/><g clip-path="url(#a)"><path fill="#74B7A0" d="M 102.109375 88.824219 L 100.6875 88.824219 C 86.304688 88.824219 74.535156 100.617188 74.535156 115.027344 L 74.535156 140.441406 C 74.535156 154.898438 86.359375 166.652344 100.6875 166.652344 L 115.117188 166.652344 C 110.792969 156.855469 108.386719 146.015625 108.386719 134.613281 C 108.386719 91.011719 143.621094 55.398438 187.414062 55.398438 C 231.203125 55.398438 266.441406 91.007812 266.441406 134.613281 C 266.441406 146.015625 264.042969 156.851562 259.710938 166.652344 C 249.976562 188.691406 230.503906 205.441406 206.769531 211.429688 C 202.898438 204.746094 195.675781 200.261719 187.414062 200.261719 C 175.0625 200.261719 165.042969 210.292969 165.042969 222.683594 C 165.042969 235.0625 175.0625 245.101562 187.414062 245.101562 C 197.503906 245.101562 206.035156 238.40625 208.820312 229.203125 C 241.625 221.777344 268.109375 197.660156 278.910156 166.207031 C 291.03125 163.945312 300.285156 153.21875 300.285156 140.441406 L 300.285156 115.027344 C 300.285156 100.617188 288.519531 88.824219 274.136719 88.824219 L 272.714844 88.824219 C 256.402344 58.359375 224.320312 37.648438 187.410156 37.648438 C 150.503906 37.648438 118.417969 58.359375 102.101562 88.824219 Z M 102.109375 88.824219" fill-rule="evenodd"/></g><g fill="#74B7A0"><g><g><path d="M 19.140625 0.671875 C 16.097656 0.671875 13.378906 0.234375 10.984375 -0.640625 C 8.585938 -1.523438 6.320312 -2.972656 4.1875 -4.984375 L 3.265625 -11.203125 L 4.125 -11.4375 C 8.757812 -7.5 13.476562 -5.53125 18.28125 -5.53125 C 21.3125 -5.53125 23.664062 -6.101562 25.34375 -7.25 C 27.03125 -8.40625 27.875 -9.96875 27.875 -11.9375 C 27.875 -13.289062 27.578125 -14.394531 26.984375 -15.25 C 26.390625 -16.113281 25.3125 -16.894531 23.75 -17.59375 C 22.1875 -18.289062 19.867188 -19.03125 16.796875 -19.8125 C 12.078125 -21.082031 8.722656 -22.742188 6.734375 -24.796875 C 4.742188 -26.847656 3.75 -29.695312 3.75 -33.34375 C 3.75 -37.488281 5.070312 -40.757812 7.71875 -43.15625 C 10.363281 -45.5625 14.023438 -46.765625 18.703125 -46.765625 C 21.492188 -46.765625 24.160156 -46.34375 26.703125 -45.5 C 29.242188 -44.65625 31.316406 -43.5 32.921875 -42.03125 L 32 -36 L 31.078125 -35.75 C 29.847656 -37.144531 28.15625 -38.289062 26 -39.1875 C 23.84375 -40.09375 21.675781 -40.546875 19.5 -40.546875 C 16.507812 -40.546875 14.242188 -39.988281 12.703125 -38.875 C 11.171875 -37.769531 10.40625 -36.15625 10.40625 -34.03125 C 10.40625 -32.550781 10.710938 -31.335938 11.328125 -30.390625 C 11.941406 -29.453125 12.972656 -28.632812 14.421875 -27.9375 C 15.878906 -27.238281 17.960938 -26.539062 20.671875 -25.84375 C 24.160156 -24.9375 26.898438 -23.921875 28.890625 -22.796875 C 30.878906 -21.671875 32.3125 -20.304688 33.1875 -18.703125 C 34.070312 -17.109375 34.515625 -15.117188 34.515625 -12.734375 C 34.515625 -8.515625 33.128906 -5.222656 30.359375 -2.859375 C 27.597656 -0.503906 23.859375 0.671875 19.140625 0.671875 Z M 19.140625 0.671875" transform="translate(25.289 325.127)"/></g></g></g><g fill="#74B7A0"><g><g><path d="M 35.625 -46.15625 L 35.203125 -37.21875 L 35.203125 -15.265625 C 35.203125 -4.429688 30.132812 0.984375 20 0.984375 C 14.914062 0.984375 11.109375 -0.378906 8.578125 -3.109375 C 6.054688 -5.835938 4.796875 -9.890625 4.796875 -15.265625 L 4.796875 -37.21875 L 4.4375 -46.15625 L 11.625 -46.15625 L 11.203125 -37.21875 L 11.203125 -15.265625 C 11.203125 -11.859375 11.914062 -9.332031 13.34375 -7.6875 C 14.78125 -6.050781 17 -5.234375 20 -5.234375 C 22.988281 -5.234375 25.203125 -6.050781 26.640625 -7.6875 C 28.078125 -9.332031 28.796875 -11.859375 28.796875 -15.265625 L 28.796875 -37.21875 L 28.421875 -46.15625 Z M 35.625 -46.15625" transform="translate(63.071 325.127)"/></g></g></g><g fill="#74B7A0"><g><g><path d="M 21.59375 -46.15625 C 24.382812 -46.15625 26.882812 -45.523438 29.09375 -44.265625 C 31.3125 -43.015625 33.054688 -41.171875 34.328125 -38.734375 C 35.597656 -36.296875 36.234375 -33.351562 36.234375 -29.90625 C 36.234375 -26.539062 35.597656 -23.625 34.328125 -21.15625 C 33.054688 -18.695312 31.300781 -16.8125 29.0625 -15.5 C 26.832031 -14.1875 24.320312 -13.53125 21.53125 -13.53125 L 11.875 -13.53125 L 11.875 -9.234375 L 12.25 0 L 5.109375 0 L 5.53125 -9.234375 L 5.53125 -37.21875 L 5.109375 -46.15625 Z M 19.5625 -19.5625 C 23.09375 -19.5625 25.644531 -20.367188 27.21875 -21.984375 C 28.800781 -23.609375 29.59375 -26.25 29.59375 -29.90625 C 29.59375 -33.4375 28.800781 -36.019531 27.21875 -37.65625 C 25.644531 -39.300781 23.132812 -40.125 19.6875 -40.125 L 11.875 -40.125 L 11.875 -19.5625 Z M 19.5625 -19.5625" transform="translate(103.13 325.127)"/></g></g></g><g fill="#74B7A0"><g><g><path d="M 21.109375 0.984375 C 15.398438 0.984375 11.078125 -1.054688 8.140625 -5.140625 C 5.210938 -9.222656 3.75 -15.265625 3.75 -23.265625 C 3.75 -31.179688 5.210938 -37.140625 8.140625 -41.140625 C 11.078125 -45.140625 15.398438 -47.140625 21.109375 -47.140625 C 26.765625 -47.140625 31.066406 -45.140625 34.015625 -41.140625 C 36.972656 -37.140625 38.453125 -31.179688 38.453125 -23.265625 C 38.453125 -15.265625 36.972656 -9.222656 34.015625 -5.140625 C 31.066406 -1.054688 26.765625 0.984375 21.109375 0.984375 Z M 21.109375 -5.234375 C 23.609375 -5.234375 25.632812 -5.828125 27.1875 -7.015625 C 28.75 -8.203125 29.910156 -10.109375 30.671875 -12.734375 C 31.429688 -15.359375 31.8125 -18.867188 31.8125 -23.265625 C 31.8125 -29.578125 30.957031 -34.097656 29.25 -36.828125 C 27.550781 -39.554688 24.835938 -40.921875 21.109375 -40.921875 C 18.609375 -40.921875 16.566406 -40.332031 14.984375 -39.15625 C 13.398438 -37.988281 12.238281 -36.113281 11.5 -33.53125 C 10.769531 -30.945312 10.40625 -27.523438 10.40625 -23.265625 C 10.40625 -18.867188 10.769531 -15.359375 11.5 -12.734375 C 12.238281 -10.109375 13.390625 -8.203125 14.953125 -7.015625 C 16.515625 -5.828125 18.566406 -5.234375 21.109375 -5.234375 Z M 21.109375 -5.234375" transform="translate(180.173 325.127)"/></g></g></g><g fill="#74B7A0"><g><g><path d="M 38.765625 0 L 29.40625 0 L 23.6875 -9.234375 L 20.609375 -13.53125 L 11.875 -13.53125 L 11.875 -9.234375 L 12.484375 0 L 5.109375 0 L 5.53125 -9.234375 L 5.53125 -37.21875 L 5.109375 -46.15625 L 21.296875 -46.15625 C 25.765625 -46.15625 29.320312 -44.75 31.96875 -41.9375 C 34.613281 -39.125 35.9375 -35.113281 35.9375 -29.90625 C 35.9375 -26.207031 35.15625 -23.054688 33.59375 -20.453125 C 32.039062 -17.847656 29.929688 -15.953125 27.265625 -14.765625 L 31.265625 -9.234375 Z M 11.875 -19.5625 L 19.328125 -19.5625 C 22.765625 -19.5625 25.28125 -20.378906 26.875 -22.015625 C 28.476562 -23.660156 29.28125 -26.289062 29.28125 -29.90625 C 29.28125 -33.46875 28.5 -36.0625 26.9375 -37.6875 C 25.382812 -39.3125 22.882812 -40.125 19.4375 -40.125 L 11.875 -40.125 Z M 11.875 -19.5625" transform="translate(222.325 325.127)"/></g></g></g><g fill="#74B7A0"><g><g><path d="M 33.28125 -39.75 L 32.609375 -39.5625 L 26.703125 -40.359375 L 20.546875 -40.359375 L 20.546875 -9.234375 L 20.984375 0 L 13.84375 0 L 14.28125 -9.234375 L 14.28125 -40.359375 L 8.125 -40.359375 L 2.21875 -39.5625 L 1.53125 -39.75 L 2.515625 -46.15625 L 32.296875 -46.15625 Z M 33.28125 -39.75" transform="translate(262.63 325.127)"/></g></g></g><g fill="#BFE5EF"><g><g><path d="M 5.53125 -9.234375 L 5.53125 -37.21875 L 5.109375 -46.15625 L 12.25 -46.15625 L 11.875 -37.21875 L 11.875 -9.234375 L 12.25 0 L 5.109375 0 Z M 5.53125 -9.234375" transform="translate(297.457 325.127)"/></g></g></g></svg>