<svg xmlns="http://www.w3.org/2000/svg" width="375" viewBox="0 0 375 375" height="375" version="1.0"><defs><clipPath id="a"><path d="M 27.929688 141.457031 L 140.429688 141.457031 L 140.429688 244.207031 L 27.929688 244.207031 Z M 27.929688 141.457031"/></clipPath></defs><path fill="#BFE5EF" d="M 84.179688 162.957031 C 98.910156 162.957031 110.855469 174.839844 110.855469 189.492188 C 110.855469 204.144531 98.910156 216.027344 84.179688 216.027344 L 57.835938 216.027344 C 60.945312 213.941406 63.761719 211.664062 66.375 209.25 L 66.386719 209.257812 C 60.933594 204.402344 57.507812 197.347656 57.507812 189.492188 C 57.507812 174.839844 69.449219 162.957031 84.183594 162.957031 Z M 84.179688 162.957031" fill-rule="evenodd"/><g clip-path="url(#a)"><path fill="#74B7A0" d="M 41.671875 166.84375 L 40.960938 166.84375 C 33.792969 166.84375 27.929688 172.675781 27.929688 179.804688 L 27.929688 192.371094 C 27.929688 199.519531 33.824219 205.335938 40.960938 205.335938 L 48.152344 205.335938 C 46 200.488281 44.800781 195.128906 44.800781 189.488281 C 44.800781 167.925781 62.359375 150.3125 84.183594 150.3125 C 106.003906 150.3125 123.5625 167.921875 123.5625 189.488281 C 123.5625 195.128906 122.367188 200.488281 120.210938 205.335938 C 115.359375 216.234375 105.65625 224.519531 93.828125 227.480469 C 91.898438 224.175781 88.300781 221.957031 84.183594 221.957031 C 78.027344 221.957031 73.035156 226.917969 73.035156 233.046875 C 73.035156 239.167969 78.027344 244.132812 84.183594 244.132812 C 89.210938 244.132812 93.460938 240.820312 94.847656 236.269531 C 111.199219 232.597656 124.394531 220.671875 129.777344 205.113281 C 135.816406 203.996094 140.429688 198.691406 140.429688 192.371094 L 140.429688 179.804688 C 140.429688 172.675781 134.566406 166.84375 127.398438 166.84375 L 126.691406 166.84375 C 118.5625 151.777344 102.574219 141.535156 84.179688 141.535156 C 65.785156 141.535156 49.800781 151.777344 41.667969 166.84375 Z M 41.671875 166.84375" fill-rule="evenodd"/></g><g fill="#74B7A0"><g><g><path d="M 41.609375 -44.046875 L 15.578125 -44.046875 L 15.578125 -29.0625 L 39.15625 -29.0625 L 39.15625 -21.28125 L 15.578125 -21.28125 L 15.578125 0 L 6.828125 0 L 6.828125 -51.90625 L 41.671875 -51.90625 Z M 41.609375 -44.046875" transform="translate(166.23 222.966)"/></g></g></g><g fill="#74B7A0"><g><g><path d="M 15.578125 0 L 6.828125 0 L 6.828125 -51.90625 L 15.578125 -51.90625 Z M 15.578125 0" transform="translate(208.863 222.966)"/></g></g></g><g fill="#74B7A0"><g><g><path d="M 30.84375 -27 L 49.765625 0 L 39.296875 0 L 25.28125 -19.578125 L 11.34375 0 L 1.109375 0 L 20.015625 -26.625 L 2.453125 -51.90625 L 12.609375 -51.90625 L 25.28125 -33.890625 L 38.046875 -51.90625 L 48.28125 -51.90625 Z M 30.84375 -27" transform="translate(231.254 222.966)"/></g></g></g><g fill="#BFE5EF"><g><g><path d="M 42.265625 -44.046875 L 25.8125 -44.046875 L 25.8125 0 L 17.0625 0 L 17.0625 -44.046875 L 0.671875 -44.046875 L 0.671875 -51.90625 L 42.265625 -51.90625 Z M 42.265625 -44.046875" transform="translate(304.953 222.966)"/></g></g></g></svg>